<svg xmlns="http://www.w3.org/2000/svg" viewBox="0 0 82.46 25.64"><defs><style>.cls-1,.cls-2{fill:#fff;}.cls-1{opacity:0.4;}</style></defs><g id="Layer_2" data-name="Layer 2"><g id="Layer_1-2" data-name="Layer 1"><path class="cls-1" d="M14.85,23.58a1.2,1.2,0,0,1-.36-2.34,9.68,9.68,0,0,0,5.77-5.09,1.21,1.21,0,0,1,2.18,1,12.08,12.08,0,0,1-7.22,6.34A1.15,1.15,0,0,1,14.85,23.58Z"/><path class="cls-2" d="M22.38,13.26a1.21,1.21,0,0,1-1.2-1.21h0a9.65,9.65,0,0,0-9.65-9.64,1.21,1.21,0,0,1,0-2.41A12.08,12.08,0,0,1,23.59,12.05a1.21,1.21,0,0,1-1.21,1.21Z"/><path class="cls-2" d="M18.79,12.05c0-.05,0-.1,0-.15s0-.22,0-.33,0-.32,0-.47l0-.19A7.25,7.25,0,0,0,11.53,4.8h-.09a7.26,7.26,0,0,0-7.17,7.25V22a3.63,3.63,0,1,0,7.26,0h0V20a.67.67,0,0,1,.62-.66,7.27,7.27,0,0,0,6.62-6.75c0-.17,0-.33,0-.5Zm-3.65,1.21a1.21,1.21,0,0,1-1.2-1.21,2.4,2.4,0,0,0-2.41-2.4,1.21,1.21,0,0,1,0-2.41,4.84,4.84,0,0,1,4.82,4.82A1.21,1.21,0,0,1,15.14,13.26Z"/><path class="cls-1" d="M0,8.73A1.19,1.19,0,0,0,.83,9.87,1.2,1.2,0,0,0,2.35,9.1,9.65,9.65,0,0,1,7.43,3.32a1.2,1.2,0,1,0-1-2.18A12.09,12.09,0,0,0,.06,8.36,1.19,1.19,0,0,0,0,8.73Z"/><path class="cls-2" d="M72.39,10.09a1,1,0,0,1,.72.27,1,1,0,0,1,0,1.37,1.08,1.08,0,0,1-.72.26H67.91a.88.88,0,0,1-.6-.21.68.68,0,0,1-.25-.56v-7a1,1,0,0,1,.28-.73,1,1,0,0,1,.72-.26h4.33a1,1,0,0,1,.72.27.89.89,0,0,1,.29.68.91.91,0,0,1-.29.69,1.08,1.08,0,0,1-.72.26H69.1V6.69h2.72a1,1,0,0,1,.72.27.94.94,0,0,1,0,1.36,1,1,0,0,1-.72.27H69.1v1.5Z"/><path class="cls-2" d="M53.07,10.81a4.63,4.63,0,0,1-6.43,0,4.27,4.27,0,0,1-1.32-3.18,4.29,4.29,0,0,1,1.32-3.19,4.63,4.63,0,0,1,6.43,0,4.29,4.29,0,0,1,1.32,3.19A4.27,4.27,0,0,1,53.07,10.81Zm-5-1.36a2.41,2.41,0,0,0,1.79.74,2.45,2.45,0,0,0,1.79-.74,2.5,2.5,0,0,0,.72-1.82,2.53,2.53,0,0,0-.72-1.81,2.42,2.42,0,0,0-1.79-.75,2.39,2.39,0,0,0-1.79.75,2.53,2.53,0,0,0-.72,1.81A2.5,2.5,0,0,0,48.06,9.45Z"/><path class="cls-2" d="M44.28,10.48l-1.21-2a3.33,3.33,0,0,0,1-1.06,2.53,2.53,0,0,0,.38-1.3A2.83,2.83,0,0,0,43.59,4a3.09,3.09,0,0,0-2.23-.84H38.69a1,1,0,0,0-1,1V11a1,1,0,1,0,2,0V9h1.19l1.75,2.68a.93.93,0,0,0,.83.38,1,1,0,0,0,.73-.27.9.9,0,0,0,.28-.69A1.13,1.13,0,0,0,44.28,10.48Zm-2.17-3.6a1,1,0,0,1-.77.32H39.7V5h1.64a1.11,1.11,0,0,1,1.1,1.1A1.06,1.06,0,0,1,42.11,6.88Z"/><path class="cls-2" d="M35.47,4a3,3,0,0,0-2.21-.85H30.59a1,1,0,0,0-.72.3,1,1,0,0,0-.29.71V11a1,1,0,1,0,2,0V9.28h1.65a3,3,0,0,0,2.22-.86,3.08,3.08,0,0,0,.86-2.28A2.87,2.87,0,0,0,35.47,4ZM34,7.1a1.18,1.18,0,0,1-.86.36H31.61V5h1.51a1.23,1.23,0,0,1,1.22,1.23A1.21,1.21,0,0,1,34,7.1Z"/><path class="cls-2" d="M82.18,3.54a1,1,0,0,0-.69-.28H76.08a1,1,0,0,0-.69.28.88.88,0,0,0-.29.67.91.91,0,0,0,.29.68,1,1,0,0,0,.69.27h1.68V11a1,1,0,1,0,2,0V5.16h1.69a1,1,0,0,0,.69-.27.9.9,0,0,0,.28-.68A.88.88,0,0,0,82.18,3.54Z"/><path class="cls-2" d="M65.25,10.89V4.15a.94.94,0,0,0-.3-.71,1,1,0,0,0-1.44,0,.94.94,0,0,0-.29.71l0,4.24L59.65,3.73a1.3,1.3,0,0,0-1-.59,1,1,0,0,0-.72.31,1,1,0,0,0-.31.73V11.1a1,1,0,1,0,2,0h0V11h0l0-4.2,3.63,4.78h0a1.1,1.1,0,0,0,2-.66Z"/><path class="cls-2" d="M63.2,18.29A2.64,2.64,0,0,0,63,17.21a2.73,2.73,0,0,0-.59-.87,3,3,0,0,0-.88-.6,2.73,2.73,0,0,0-1.07-.22,2.91,2.91,0,0,0-1.09.22,2.86,2.86,0,0,0-.88.6,2.94,2.94,0,0,0-.6.87,2.82,2.82,0,0,0-.22,1.08,2.72,2.72,0,0,0,.21,1.07,2.56,2.56,0,0,0,.58.86,2.78,2.78,0,0,0,.88.57,3.1,3.1,0,0,0,1.12.2h1.15v.07a1.34,1.34,0,0,1-.08.46,1.42,1.42,0,0,1-.26.38,1.15,1.15,0,0,1-.37.25,1.2,1.2,0,0,1-.45.09H59.17a.81.81,0,0,0-.56.21.72.72,0,0,0-.24.55.8.8,0,0,0,.8.8h1.27a2.72,2.72,0,0,0,1.07-.21,2.78,2.78,0,0,0,.88-.59,2.53,2.53,0,0,0,.59-.87,2.56,2.56,0,0,0,.22-1.07Zm-1.61,1.14H60.43a1.15,1.15,0,0,1-.85-.32,1.18,1.18,0,0,1-.23-1.26,1.13,1.13,0,0,1,.63-.63,1.13,1.13,0,0,1,.45-.09,1.2,1.2,0,0,1,.45.09,1.15,1.15,0,0,1,.37.25,1.42,1.42,0,0,1,.26.38,1.33,1.33,0,0,1,.08.45Z"/><path class="cls-2" d="M79.43,22.23a1.21,1.21,0,0,0-.3-.2.91.91,0,0,0-.7,0,1,1,0,0,0-.29.2.83.83,0,0,0-.2.3.85.85,0,0,0-.08.35.78.78,0,0,0,.08.35.83.83,0,0,0,.2.3,1,1,0,0,0,.29.2.91.91,0,0,0,.7,0,1.21,1.21,0,0,0,.3-.2,1,1,0,0,0,.2-.3.78.78,0,0,0,.07-.35.84.84,0,0,0-.07-.35A1,1,0,0,0,79.43,22.23Z"/><path class="cls-2" d="M82.23,16.42a.75.75,0,0,0-.55-.23.82.82,0,0,0-.58.23.77.77,0,0,0-.24.56v1.37a1.23,1.23,0,0,1-.23.83,1,1,0,0,1-.79.25H68.29a1.45,1.45,0,0,1-.76-.17.68.68,0,0,1-.32-.62V17a.8.8,0,0,0-.8-.79.81.81,0,0,0-.57.23.77.77,0,0,0-.24.56v4.08a1.14,1.14,0,0,1-.09.46,1.19,1.19,0,0,1-.25.38,1.09,1.09,0,0,1-.38.25,1.12,1.12,0,0,1-.44.09h-.11a.83.83,0,0,0-.56.21.71.71,0,0,0-.23.55.77.77,0,0,0,.23.57.8.8,0,0,0,.56.23h.12a2.72,2.72,0,0,0,1.07-.21A2.89,2.89,0,0,0,66.4,23a2.68,2.68,0,0,0,.59-.87,2.56,2.56,0,0,0,.22-1.07v-.5a1.11,1.11,0,0,0,.48.31,1.91,1.91,0,0,0,.68.12H79.79a3.26,3.26,0,0,0,.82-.11,2.73,2.73,0,0,0,.88-.38,2.27,2.27,0,0,0,.69-.72,2,2,0,0,0,.28-1.11V17A.76.76,0,0,0,82.23,16.42Z"/><path class="cls-2" d="M35.14,16.4a.84.84,0,0,0,.29.2.82.82,0,0,0,.35.08.85.85,0,0,0,.35-.08,1,1,0,0,0,.3-.2,1.15,1.15,0,0,0,.2-.29.86.86,0,0,0,.07-.36.83.83,0,0,0-.07-.34,1,1,0,0,0-.2-.3,1,1,0,0,0-.3-.2.85.85,0,0,0-.35-.08.82.82,0,0,0-.35.08.84.84,0,0,0-.29.2.9.9,0,0,0-.21.3.83.83,0,0,0-.07.34.86.86,0,0,0,.07.36A1,1,0,0,0,35.14,16.4Z"/><path class="cls-2" d="M32.61,16.4a1,1,0,0,0,.3.2.78.78,0,0,0,.35.08.92.92,0,0,0,.65-.28.89.89,0,0,0,.27-.65.83.83,0,0,0-.07-.34,1,1,0,0,0-.2-.3,1,1,0,0,0-.3-.2.85.85,0,0,0-.35-.08.78.78,0,0,0-.35.08,1,1,0,0,0-.3.2,1,1,0,0,0-.2.3.83.83,0,0,0-.07.34.86.86,0,0,0,.07.36A1.15,1.15,0,0,0,32.61,16.4Z"/><path class="cls-2" d="M50.7,15.41a1,1,0,0,0-.2-.3,1,1,0,0,0-.3-.2.81.81,0,0,0-.7,0,.84.84,0,0,0-.29.2.9.9,0,0,0-.21.3,1,1,0,0,0-.07.34,1,1,0,0,0,.07.36,1,1,0,0,0,.21.29.84.84,0,0,0,.29.2.81.81,0,0,0,.7,0,1,1,0,0,0,.3-.2,1.15,1.15,0,0,0,.2-.29.86.86,0,0,0,.07-.36A.83.83,0,0,0,50.7,15.41Z"/><path class="cls-2" d="M53.6,16.18a.83.83,0,0,0-.58.23.77.77,0,0,0-.24.56v1.37a1.23,1.23,0,0,1-.23.83,1,1,0,0,1-.79.25H40.61a1.2,1.2,0,0,1-.82-.23,1,1,0,0,1-.28-.8V17a.8.8,0,0,0-.8-.79.81.81,0,0,0-.57.23.77.77,0,0,0-.24.56v.86a1.46,1.46,0,0,1-.47,1.23,1.93,1.93,0,0,1-1.21.36H33a2.46,2.46,0,0,1-.93-.14,1.1,1.1,0,0,1-.55-.4,1.38,1.38,0,0,1-.26-.63,4.36,4.36,0,0,1-.07-.85V17a.81.81,0,0,0-1.37-.56.76.76,0,0,0-.23.56v.84a3.79,3.79,0,0,0,.21,1.29,2.53,2.53,0,0,0,.64,1,3,3,0,0,0,1.06.64A4.15,4.15,0,0,0,33,21h3.27a3.26,3.26,0,0,0,1.52-.31,2.47,2.47,0,0,0,.92-.71,1.5,1.5,0,0,0,.33.43,2.17,2.17,0,0,0,.47.32,2.83,2.83,0,0,0,.55.21,2.78,2.78,0,0,0,.58.06h11.1a3.2,3.2,0,0,0,.82-.11,2.73,2.73,0,0,0,.88-.38,2.3,2.3,0,0,0,.7-.72,2.12,2.12,0,0,0,.28-1.11V17a.8.8,0,0,0-.23-.56A.79.79,0,0,0,53.6,16.18Z"/></g></g></svg>