<svg xmlns="http://www.w3.org/2000/svg" viewBox="0 0 775.25 228.58"><defs><style>.cls-1{fill:#fff;}</style></defs><g id="Layer_2" data-name="Layer 2"><g id="Layer_1-2" data-name="Layer 1"><path class="cls-1" d="M315.36,139.5a34.33,34.33,0,0,1-13.63,13.35,41.85,41.85,0,0,1-20.45,4.83H265v19.59a14.06,14.06,0,0,1-28.11,0V96.06a14.07,14.07,0,0,1,14-14.06h29.82a41.79,41.79,0,0,1,20.87,5,35.18,35.18,0,0,1,13.78,13.7,39.38,39.38,0,0,1,4.83,19.45A38.55,38.55,0,0,1,315.36,139.5ZM265,134.68h9.51q9,0,13.28-3.34t4.33-11.15q0-8.09-4-11.5t-13.64-3.41H265Z"/><path class="cls-1" d="M411.77,169.61c.09.19.49,1.08,1.2,2.69a12.22,12.22,0,0,1,1.07,5A14.07,14.07,0,0,1,400,191.33a13.26,13.26,0,0,1-8.3-2.77,16.09,16.09,0,0,1-5.33-7.31L376,154.84H361.65v22.43a14.06,14.06,0,0,1-28.12,0V96.06A14.07,14.07,0,0,1,347.59,82h32.66q11.78,0,20,4.9A32,32,0,0,1,412.69,100a38.48,38.48,0,0,1,4.19,17.82A40.36,40.36,0,0,1,413.12,135a33.81,33.81,0,0,1-10.72,13.21Zm-50.12-37.06h9.51q9.09,0,13.35-3.2t4.26-11q0-7.81-4.55-10.79t-14.62-3h-8Z"/><path class="cls-1" d="M434.34,101.66a38,38,0,0,1,16.19-16.25A50.56,50.56,0,0,1,474.24,80,50,50,0,0,1,498,85.48a39,39,0,0,1,16.26,16.26q5.89,10.79,5.89,26.4v15.91q0,15.62-5.89,26.19A38,38,0,0,1,498,186.08q-10.29,5.25-23.78,5.25a52.26,52.26,0,0,1-23.78-5.18,37.14,37.14,0,0,1-16.12-15.83q-5.82-10.65-5.82-26.27V128.14Q428.52,112.53,434.34,101.66Zm25.92,60.42q3.62,6.54,13.84,6.53t14.13-6.46Q492,155.69,492,145V127.15a56.7,56.7,0,0,0-1.21-12.71,15.14,15.14,0,0,0-5.11-8.44q-3.9-3.27-11.57-3.27-9.94,0-13.7,6.67t-3.77,17.75V145Q456.63,155.56,460.26,162.08Z"/><path class="cls-1" d="M611.83,130.35a15.52,15.52,0,0,0-11.93-4.9,18,18,0,0,0-13.42,5.46q-5.33,5.47-5.32,15.13v37.2a8.1,8.1,0,1,1-16.19,0V118.77a8.1,8.1,0,1,1,16.19,0v3.84q8.37-11.92,24-11.93,13.77,0,20.59,8.09t6.82,23.29v41.18a8.1,8.1,0,1,1-16.19,0V145.18Q616.37,135.25,611.83,130.35Z"/><path class="cls-1" d="M659.25,182q-9.66-9.3-9.66-26.62v-9.09a39.89,39.89,0,0,1,4.26-19A30.18,30.18,0,0,1,665.71,115a34.44,34.44,0,0,1,17.39-4.33q15.35,0,24.5,8.73T716.75,145v5.26a6.56,6.56,0,0,1-7,6.95h-44q.29,9.8,6.25,15.12t15.9,5.33a46.23,46.23,0,0,0,9.37-1.14,58.43,58.43,0,0,0,9.37-2.69,8.3,8.3,0,0,1,2.7-.43,6.81,6.81,0,0,1,4.4,1.49,5.41,5.41,0,0,1,1.85,4.47,7.29,7.29,0,0,1-3.84,6.39,35,35,0,0,1-11.43,4.05,72.26,72.26,0,0,1-14.41,1.49Q668.9,191.33,659.25,182Zm41.17-37v-1.13q0-9.94-4.47-14.91t-12.85-5q-8.24,0-12.71,5.46T665.78,145Z"/><path class="cls-1" d="M737.63,96.91a8.09,8.09,0,1,1,16.18,0v15.76h13.35a6.78,6.78,0,0,1,6.81,6.81,6.35,6.35,0,0,1-2,4.76,6.71,6.71,0,0,1-4.83,1.92H753.81v36.77q0,7.81,2.63,11.08t8.73,3.26l3.55-.14a6.23,6.23,0,0,1,4.69,1.92,7,7,0,0,1,.28,9.16,7.34,7.34,0,0,1-4.12,2.41,19.72,19.72,0,0,1-6,.71q-26,0-26-26.55V126.16h-6.25a6.78,6.78,0,0,1-6.67-6.68,6.57,6.57,0,0,1,2-4.82,6.41,6.41,0,0,1,4.69-2h6.25Z"/><path class="cls-1" d="M161.43,118.17a10.72,10.72,0,0,1-10.72-10.72,86.12,86.12,0,0,0-86-86A10.72,10.72,0,0,1,64.69,0,107.58,107.58,0,0,1,172.15,107.45,10.72,10.72,0,0,1,161.43,118.17Z"/><path class="cls-1" d="M63.13,42.76h-31A32.14,32.14,0,0,0,0,74.89V196.23a32.35,32.35,0,0,0,32.35,32.35h0a32.34,32.34,0,0,0,32.34-32.35V177.82a6,6,0,0,1,5.53-5.9,64.71,64.71,0,0,0,59-60.15C131.72,74.19,100.79,42.76,63.13,42.76Zm33.76,75.41a10.72,10.72,0,0,1-10.72-10.72A21.5,21.5,0,0,0,64.69,86a10.72,10.72,0,0,1,0-21.44,43,43,0,0,1,42.92,42.91A10.72,10.72,0,0,1,96.89,118.17Z"/></g></g></svg>